<svg width="86" height="30" viewBox="0 0 86 30" fill="none" xmlns="http://www.w3.org/2000/svg">
<g id="Afterpay" clip-path="url(#clip0_810_38235)">
<path id="Vector" d="M71.117 29.9436H14.8862C6.69475 29.9436 0.0578613 23.2544 0.0578613 15.0019C0.0578613 6.74693 6.69557 0.0585938 14.8854 0.0585938H71.1162C79.306 0.0585938 85.9446 6.74776 85.9446 15.0011C85.9495 23.2486 79.306 29.9436 71.117 29.9436Z" fill="#B2FCE4"/>
<path id="Vector_2" d="M72.9594 11.2664L71.0914 10.1898L69.1969 9.0956C67.9441 8.37227 66.3779 9.2806 66.3779 10.7389V10.9839C66.3779 11.1198 66.4482 11.2456 66.5673 11.3106L67.4471 11.8164C67.6902 11.9581 67.9929 11.7789 67.9929 11.4956V10.9131C67.993 10.8475 68.0101 10.7832 68.0425 10.7263C68.075 10.6695 68.1216 10.6223 68.1779 10.5893C68.2341 10.5564 68.2979 10.5388 68.363 10.5385C68.428 10.5381 68.492 10.5549 68.5486 10.5873L70.2769 11.5881L71.9985 12.5839C72.2466 12.7256 72.2466 13.0898 71.9985 13.2314L70.276 14.2273L68.5486 15.2281C68.492 15.2606 68.4279 15.2776 68.3627 15.2774C68.2976 15.2771 68.2336 15.2596 68.1772 15.2266C68.1209 15.1936 68.0741 15.1463 68.0416 15.0894C68.0091 15.0325 67.9921 14.9679 67.9921 14.9023V14.6131C67.9921 13.1548 66.4267 12.2414 65.1739 12.9706L63.2786 14.0639L61.4098 15.1414C60.1528 15.8706 60.1528 17.7039 61.4098 18.4331L63.2786 19.5106L65.1739 20.6048C66.4267 21.3281 67.9921 20.4198 67.9921 18.9614V18.7164C67.9929 18.6499 67.9757 18.5844 67.9425 18.5269C67.9093 18.4694 67.8613 18.422 67.8035 18.3898L66.9237 17.8839C66.8681 17.8519 66.8051 17.8351 66.741 17.8354C66.677 17.8357 66.6142 17.853 66.5588 17.8855C66.5035 17.918 66.4577 17.9646 66.4259 18.0207C66.3941 18.0767 66.3776 18.1402 66.3779 18.2048V18.7873C66.3781 18.853 66.3611 18.9176 66.3286 18.9747C66.2962 19.0317 66.2495 19.0792 66.1931 19.1123C66.1367 19.1453 66.0727 19.1629 66.0075 19.1632C65.9422 19.1635 65.8781 19.1465 65.8214 19.1139L64.094 18.1123L62.3715 17.1164C62.315 17.0837 62.268 17.0366 62.2353 16.9797C62.2027 16.9229 62.1855 16.8584 62.1855 16.7927C62.1855 16.727 62.2027 16.6625 62.2353 16.6056C62.268 16.5488 62.315 16.5016 62.3715 16.4689L64.094 15.4731L65.8222 14.4723C65.8789 14.4399 65.9429 14.4231 66.0081 14.4235C66.0732 14.4239 66.137 14.4415 66.1933 14.4745C66.2495 14.5076 66.2962 14.555 66.3286 14.6119C66.361 14.6688 66.378 14.7333 66.3779 14.7989V15.0873C66.3779 16.5456 67.9441 17.4598 69.1969 16.7306L71.0914 15.6364L72.9602 14.5589C74.218 13.8248 74.218 11.9964 72.9602 11.2673L72.9594 11.2664ZM60.7027 11.6264L56.33 20.7298H54.5157L56.1522 17.3289L53.5763 11.6264H55.4394L57.0916 15.4464L58.8943 11.6264H60.7036H60.7027ZM16.9717 14.8581C16.9717 13.7698 16.1886 13.0081 15.2278 13.0081C14.2669 13.0081 13.4838 13.7864 13.4838 14.8581C13.4838 15.9198 14.2669 16.7081 15.2286 16.7081C16.1903 16.7081 16.9717 15.9464 16.9717 14.8581ZM16.9883 18.0906V17.2523C16.5128 17.8356 15.8058 18.1939 14.9631 18.1939C13.2026 18.1939 11.8696 16.7739 11.8696 14.8581C11.8696 12.9589 13.2572 11.5123 15.0012 11.5123C15.8215 11.5123 16.5128 11.8764 16.9883 12.4423V11.6256H18.5644V18.0906H16.9883ZM26.2325 16.6539C25.6817 16.6539 25.5246 16.4473 25.5246 15.9031V13.0356H26.5401V11.6264H25.5246V10.0481H23.9105V11.6264H21.8266V10.9848C21.8266 10.4398 22.0317 10.2331 22.5981 10.2331H22.9545V8.98143H22.1772C20.8434 8.98143 20.2116 9.4231 20.2116 10.7664V11.6314H19.3152V13.0356H20.2116V18.0906H21.8258V13.0356H23.9096V16.2023C23.9096 17.5189 24.4124 18.0906 25.7189 18.0906H26.5508V16.6539H26.2325ZM32.0317 14.2764C31.9176 13.4381 31.2378 12.9323 30.4382 12.9323C29.6443 12.9323 28.9861 13.4214 28.824 14.2764H32.0317ZM28.8075 15.2831C28.9208 16.2406 29.6013 16.7848 30.4655 16.7848C31.146 16.7848 31.6695 16.4639 31.9771 15.9464H33.6351C33.2514 17.3181 32.0308 18.1939 30.4274 18.1939C28.4891 18.1939 27.128 16.8231 27.128 14.8689C27.128 12.9156 28.5644 11.5064 30.4655 11.5064C32.3765 11.5064 33.7649 12.9264 33.7649 14.8689C33.7649 15.0106 33.7541 15.1523 33.7269 15.2831H28.8075ZM44.0452 14.8581C44.0452 13.8139 43.2621 13.0081 42.3012 13.0081C41.3403 13.0081 40.5564 13.7864 40.5564 14.8581C40.5564 15.9198 41.3403 16.7081 42.3012 16.7081C43.2621 16.7081 44.046 15.9081 44.046 14.8581M38.9646 20.7298V11.6264H40.5407V12.4639C41.0162 11.8714 41.7232 11.5064 42.5658 11.5064C44.2991 11.5064 45.6602 12.9431 45.6602 14.8423C45.6602 16.7414 44.2718 18.1889 42.5278 18.1889C41.7174 18.1889 41.0542 17.8673 40.5895 17.3231V20.7239H38.9646V20.7298ZM51.3453 14.8581C51.3453 13.7698 50.5622 13.0081 49.6013 13.0081C48.6404 13.0081 47.8573 13.7864 47.8573 14.8581C47.8573 15.9198 48.6404 16.7081 49.6021 16.7081C50.5622 16.7081 51.3453 15.9464 51.3453 14.8581ZM51.3618 18.0906V17.2523C50.8863 17.8356 50.1793 18.1939 49.3367 18.1939C47.577 18.1939 46.2432 16.7739 46.2432 14.8581C46.2432 12.9589 47.6307 11.5123 49.3747 11.5123C50.195 11.5123 50.8863 11.8764 51.3618 12.4423V11.6256H52.9388V18.0906H51.3618ZM36.1191 12.2581C36.1191 12.2581 36.5185 11.5064 37.5067 11.5064C37.9276 11.5064 38.1972 11.6531 38.1972 11.6531V13.3023C38.1972 13.3023 37.6035 12.9323 37.0585 13.0081C36.5128 13.0848 36.1671 13.5848 36.1671 14.2598V18.0848H34.5364V11.6264H36.1134V12.2573H36.1191V12.2581Z" fill="#121212"/>
</g>
<defs>
<clipPath id="clip0_810_38235">
<rect width="86" height="30" fill="white"/>
</clipPath>
</defs>
</svg>
