<svg width="27" height="28" viewBox="0 0 27 28" fill="none" xmlns="http://www.w3.org/2000/svg">
<g id="Standard Collection 27">
<path id="Vector" d="M23.7766 10.6755L23.7604 10.6593C23.7591 10.6584 23.758 10.6572 23.7574 10.6558L13.6072 0.505371L3.45713 10.6555C3.45596 10.6567 3.45531 10.6583 3.45413 10.659L3.43738 10.6753C1.8853 12.2361 0.899455 14.2709 0.636575 16.4563C0.373696 18.6418 0.848865 20.8524 1.98654 22.7367C3.12422 24.6211 4.85912 26.0712 6.91546 26.8562C8.97178 27.6413 11.2315 27.7165 13.3355 27.0697C13.5125 27.0156 13.7017 27.0156 13.8788 27.0697C15.9826 27.7162 18.2422 27.641 20.2984 26.8558C22.3546 26.0707 24.0893 24.6207 25.2269 22.7365C26.3645 20.8522 26.8398 18.6418 26.577 16.4565C26.3142 14.2712 25.3285 12.2363 23.7766 10.6755ZM7.06636 17.3689C7.01695 17.4183 6.97777 17.477 6.95104 17.5415C6.92431 17.606 6.91054 17.6752 6.91056 17.745C6.92862 19.5365 7.4349 21.289 8.37492 22.8142C8.39627 22.8488 8.40614 22.8893 8.40311 22.9298C8.40008 22.9703 8.38432 23.0088 8.35805 23.0399C8.3318 23.0709 8.2964 23.0928 8.25693 23.1025C8.21745 23.1122 8.17592 23.1092 8.13828 23.0939C7.4316 22.7966 6.78962 22.3645 6.24823 21.8218C5.13875 20.7121 4.51502 19.2074 4.51401 17.6382C4.51301 16.069 5.13481 14.5636 6.24287 13.4525L13.6072 6.08888L20.9711 13.4525C22.0794 14.5634 22.7014 16.0689 22.7004 17.6382C22.6994 19.2074 22.0756 20.7121 20.966 21.8218C20.4246 22.3645 19.7827 22.7966 19.0761 23.0939C19.0384 23.1092 18.9968 23.1122 18.9574 23.1025C18.918 23.0928 18.8826 23.0708 18.8562 23.0399C18.83 23.0088 18.8142 22.9703 18.8111 22.9297C18.8081 22.8892 18.818 22.8487 18.8393 22.8141C19.7795 21.289 20.2861 19.5365 20.3044 17.745C20.3044 17.6752 20.2905 17.606 20.2637 17.5414C20.2368 17.4768 20.1975 17.4182 20.148 17.3688L16.6648 13.6742C16.63 13.6452 16.5864 13.6294 16.5412 13.6294C16.4961 13.6294 16.4523 13.6452 16.4177 13.6742C16.383 13.703 16.3597 13.7432 16.3515 13.7877C16.3434 13.8321 16.3511 13.8778 16.3734 13.9172C17.7262 16.3652 16.5629 19.8816 14.623 21.8218L14.6128 21.832C14.345 22.0969 13.9835 22.2454 13.6069 22.2453C13.2303 22.2451 12.8689 22.0964 12.6013 21.8314L12.5919 21.8218C10.6513 19.8816 9.48857 16.3656 10.8416 13.9177C10.8638 13.8784 10.8716 13.8326 10.8635 13.7882C10.8554 13.7438 10.832 13.7035 10.7973 13.6747C10.7627 13.6457 10.7189 13.6299 10.6738 13.6299C10.6286 13.6299 10.5849 13.6457 10.5503 13.6747L7.06636 17.3689Z" fill="#121212"/>
</g>
</svg>
