<svg width="58" height="24" viewBox="0 0 58 24" fill="none" xmlns="http://www.w3.org/2000/svg">
<g id="GPay">
<path fill-rule="evenodd" clip-rule="evenodd" d="M26.808 18.7139V11.7323H30.3318C31.7758 11.7323 32.9945 11.2375 33.9881 10.2618L34.2266 10.0144C36.0414 7.99413 35.9222 4.84692 33.9881 2.97783C33.021 1.98831 31.6963 1.45233 30.3318 1.47981H24.6752V18.7139H26.808ZM26.8083 9.61569V3.59612H30.3857C31.1541 3.59612 31.8828 3.89848 32.4261 4.44821C33.5788 5.60264 33.6053 7.5267 32.4923 8.72237C31.9491 9.31333 31.1806 9.64317 30.3857 9.61569H26.8083Z" fill="#3C4043"/>
<path fill-rule="evenodd" clip-rule="evenodd" d="M44.1754 7.84285C43.2613 6.97702 42.0161 6.53723 40.4396 6.53723C38.4128 6.53723 36.8893 7.30686 35.8825 8.83236L37.7637 10.0555C38.4525 9.01103 39.3931 8.48878 40.5854 8.48878C41.3405 8.48878 42.0691 8.77739 42.6387 9.29963C43.1951 9.79439 43.513 10.509 43.513 11.2649V11.7734C42.6917 11.3062 41.6584 11.0588 40.3867 11.0588C38.9029 11.0588 37.7107 11.4161 36.8231 12.1445C35.9355 12.8729 35.4851 13.8349 35.4851 15.0581C35.4586 16.1713 35.9223 17.2295 36.7436 17.9442C37.5782 18.7138 38.638 19.0986 39.8833 19.0986C41.3537 19.0986 42.5195 18.4252 43.4071 17.0783H43.4998V18.7138H45.5399V11.4436C45.5399 9.91808 45.0895 8.70867 44.1754 7.84285ZM38.3867 16.5424C37.9494 16.2126 37.6844 15.6766 37.6844 15.0994C37.6844 14.4534 37.9759 13.9174 38.5457 13.4914C39.1286 13.0654 39.8574 12.8455 40.7186 12.8455C41.911 12.8317 42.8385 13.1066 43.501 13.6563C43.501 14.5909 43.1432 15.4017 42.441 16.0889C41.805 16.7486 40.9438 17.1196 40.0429 17.1196C39.4466 17.1334 38.8636 16.9272 38.3867 16.5424Z" fill="#3C4043"/>
<path d="M50.1236 23.895L57.2507 6.92203H54.9324L51.6338 15.3879H51.594L48.2159 6.92203H45.8976L50.574 17.9579L47.9245 23.895H50.1236Z" fill="#3C4043"/>
<path d="M19.4447 10.2206C19.4447 9.54718 19.3917 8.87376 19.2857 8.21408H10.2907V12.021H15.444C15.232 13.2441 14.5431 14.3436 13.5363 15.0308V17.5045H16.6097C18.4114 15.7866 19.4447 13.2441 19.4447 10.2206Z" fill="#4285F4"/>
<path d="M10.2911 19.896C12.8611 19.896 15.0333 19.0163 16.6097 17.5045L13.5363 15.0308C12.6752 15.6355 11.5761 15.9791 10.2911 15.9791C7.80056 15.9791 5.69422 14.2337 4.93912 11.8974H1.77298V14.4536C3.38917 17.7932 6.68778 19.896 10.2911 19.896Z" fill="#34A853"/>
<path d="M4.93912 11.8974C4.54163 10.6742 4.54201 9.34106 4.93949 8.10417V5.56166H1.77286C0.408153 8.35155 0.408153 11.6499 1.77286 14.4398L4.93912 11.8974Z" fill="#FBBC04"/>
<path d="M10.2911 4.02242C11.6556 3.99493 12.9671 4.53092 13.9474 5.50669L16.6763 2.67557C14.9409 0.998892 12.6624 0.078092 10.2911 0.105579C6.68777 0.105579 3.38904 2.22204 1.77286 5.56166L4.93912 8.11792C5.69422 5.76781 7.80056 4.02242 10.2911 4.02242Z" fill="#EA4335"/>
</g>
</svg>
