<svg width="121" height="21" viewBox="0 0 121 21" fill="none" xmlns="http://www.w3.org/2000/svg">
<g id="SHOPR">
<path d="M17.5895 5.84228C17.2606 5.66709 16.8264 5.46884 16.2867 5.24754C15.7471 5.02624 15.1358 4.81877 14.4528 4.62513C13.7698 4.42228 13.0278 4.2563 12.2267 4.12721C11.4257 3.9889 10.6035 3.91974 9.76034 3.91974C9.08578 3.91974 8.50819 3.94279 8.02756 3.9889C7.55537 4.035 7.15485 4.09494 6.826 4.1687C6.50558 4.24247 6.24841 4.33007 6.05447 4.4315C5.86897 4.5237 5.72562 4.62052 5.62444 4.72195C5.52325 4.82338 5.4558 4.92481 5.42207 5.02624C5.39677 5.12767 5.38413 5.21988 5.38413 5.30287C5.38413 5.57949 5.51061 5.82384 5.76357 6.03592C6.01653 6.23878 6.36224 6.4232 6.8007 6.58917C7.23917 6.74593 7.74931 6.89807 8.33112 7.0456C8.91293 7.18392 9.52846 7.33145 10.1777 7.4882C10.8354 7.63574 11.51 7.80171 12.2014 7.98613C12.9013 8.16133 13.5758 8.36879 14.2251 8.60854C14.8828 8.84828 15.5026 9.12951 16.0844 9.45224C16.6662 9.76575 17.1763 10.1346 17.6148 10.5587C18.0532 10.9829 18.399 11.4716 18.6519 12.0249C18.9049 12.5781 19.0314 13.2097 19.0314 13.9197C19.0314 14.8326 18.8838 15.6164 18.5887 16.2711C18.2936 16.9257 17.8972 17.479 17.3998 17.9308C16.9107 18.3826 16.3415 18.7468 15.6923 19.0235C15.043 19.2909 14.36 19.4983 13.6433 19.6459C12.935 19.7934 12.2141 19.8902 11.4805 19.9363C10.7553 19.9824 10.0639 20.0055 9.4062 20.0055C7.68607 20.0055 6.09241 19.8487 4.62524 19.5352C3.1665 19.2309 1.8764 18.8483 0.754946 18.3872V13.8506C1.91013 14.5514 3.22553 15.1 4.70113 15.4965C6.18517 15.893 7.77039 16.0912 9.45679 16.0912C10.4518 16.0912 11.2612 16.0359 11.8852 15.9253C12.5176 15.8054 13.0109 15.6579 13.365 15.4827C13.7192 15.2983 13.9595 15.1 14.086 14.8879C14.2125 14.6758 14.2757 14.473 14.2757 14.2794C14.2757 13.9751 14.1492 13.7123 13.8963 13.491C13.6433 13.2604 13.2976 13.0622 12.8591 12.8962C12.4206 12.721 11.9105 12.5643 11.3287 12.426C10.7469 12.2784 10.1271 12.1355 9.46944 11.9972C8.82017 11.8497 8.14983 11.6929 7.4584 11.5269C6.76698 11.361 6.09241 11.1673 5.43472 10.946C4.78545 10.7155 4.16991 10.4527 3.5881 10.1576C3.0063 9.85335 2.49616 9.49835 2.05769 9.09263C1.61923 8.67769 1.27351 8.20282 1.02055 7.66801C0.767594 7.12398 0.641113 6.49696 0.641113 5.78696C0.641113 4.94786 0.776026 4.22403 1.04585 3.61545C1.31568 3.00688 1.67825 2.49051 2.13358 2.06635C2.59734 1.63297 3.12856 1.28258 3.72723 1.01518C4.33434 0.747771 4.97096 0.540302 5.63709 0.392768C6.30322 0.245235 6.97778 0.143806 7.66077 0.0884807C8.34376 0.0331557 8.99303 0.00549316 9.60857 0.00549316C10.2831 0.00549316 10.9746 0.0423765 11.6828 0.116143C12.3996 0.18991 13.1036 0.29595 13.7951 0.434262C14.4865 0.563354 15.1526 0.715498 15.7935 0.890694C16.4427 1.06589 17.0414 1.25031 17.5895 1.44394V5.84228Z" fill="black"/>
<path d="M40.1156 19.4937V11.5684H28.1759V19.4937H23.4835V0.489587H28.1759V7.40522H40.1156V0.489587H44.808V19.4937H40.1156Z" fill="black"/>
<path d="M72.7349 10.0055C72.7349 11.6376 72.4609 13.0806 71.9128 14.3347C71.3647 15.5795 70.5805 16.6214 69.5602 17.4605C68.54 18.2996 67.3005 18.9359 65.8417 19.3693C64.3914 19.7934 62.7598 20.0055 60.9469 20.0055C59.134 20.0055 57.494 19.7934 56.0268 19.3693C54.5681 18.9359 53.3244 18.2996 52.2957 17.4605C51.267 16.6214 50.4744 15.5795 49.9178 14.3347C49.3613 13.0806 49.0831 11.6376 49.0831 10.0055C49.0831 8.3734 49.3613 6.93495 49.9178 5.69014C50.4744 4.43611 51.267 3.38954 52.2957 2.55044C53.3244 1.71135 54.5681 1.07972 56.0268 0.655562C57.494 0.222183 59.134 0.00549316 60.9469 0.00549316C62.7598 0.00549316 64.3914 0.222183 65.8417 0.655562C67.3005 1.07972 68.54 1.71135 69.5602 2.55044C70.5805 3.38954 71.3647 4.43611 71.9128 5.69014C72.4609 6.93495 72.7349 8.3734 72.7349 10.0055ZM67.9919 10.0055C67.9919 9.29549 67.8865 8.59009 67.6757 7.88931C67.4733 7.17931 67.1065 6.54307 66.5753 5.9806C66.0525 5.41813 65.3358 4.96169 64.4251 4.6113C63.5145 4.26091 62.3551 4.08571 60.9469 4.08571C60.0025 4.08571 59.172 4.1687 58.4553 4.33468C57.7385 4.49143 57.1188 4.71273 56.596 4.99858C56.0732 5.28442 55.6348 5.62098 55.2806 6.00826C54.9265 6.38631 54.644 6.79664 54.4332 7.23924C54.2224 7.67262 54.0706 8.12905 53.9779 8.60854C53.8935 9.0788 53.8514 9.54445 53.8514 10.0055C53.8514 10.4758 53.8935 10.9506 53.9779 11.4301C54.0706 11.9096 54.2224 12.3706 54.4332 12.8132C54.644 13.2466 54.9265 13.6523 55.2806 14.0304C55.6348 14.4084 56.0732 14.7404 56.596 15.0262C57.1188 15.3029 57.7385 15.5242 58.4553 15.6901C59.172 15.8469 60.0025 15.9253 60.9469 15.9253C62.3551 15.9253 63.5145 15.7501 64.4251 15.3997C65.3358 15.0493 66.0525 14.5929 66.5753 14.0304C67.1065 13.4679 67.4733 12.8363 67.6757 12.1355C67.8865 11.4255 67.9919 10.7155 67.9919 10.0055Z" fill="black"/>
<path d="M96.5385 6.97645C96.5385 7.92619 96.412 8.80217 96.159 9.60439C95.9061 10.3974 95.4971 11.0843 94.9322 11.6652C94.3757 12.2369 93.6505 12.6841 92.7567 13.0069C91.8629 13.3296 90.7752 13.491 89.4935 13.491H81.7024V19.4937H77.0099V0.489587H89.4935C90.7752 0.489587 91.8629 0.650952 92.7567 0.973681C93.6505 1.28719 94.3757 1.7344 94.9322 2.31531C95.4971 2.88701 95.9061 3.56935 96.159 4.36234C96.412 5.15533 96.5385 6.0267 96.5385 6.97645ZM91.7955 7.05943C91.7955 6.61683 91.7365 6.23878 91.6184 5.92527C91.5088 5.60254 91.3233 5.33975 91.0619 5.13689C90.8005 4.93403 90.459 4.7865 90.0374 4.69429C89.6158 4.59286 89.0972 4.54215 88.4817 4.54215H81.7024V9.43841H88.4817C89.0972 9.43841 89.6158 9.40153 90.0374 9.32776C90.459 9.24477 90.8005 9.11107 91.0619 8.92665C91.3233 8.73302 91.5088 8.48405 91.6184 8.17977C91.7365 7.87548 91.7955 7.50204 91.7955 7.05943Z" fill="black"/>
<path d="M105.127 19.4937H100.434V0.489587H112.197C113.462 0.489587 114.532 0.63251 115.409 0.918356C116.295 1.2042 117.011 1.60992 117.56 2.13551C118.116 2.66109 118.517 3.29733 118.761 4.04422C119.014 4.78189 119.141 5.60715 119.141 6.52002C119.141 7.32223 119.035 8.02301 118.824 8.62237C118.622 9.22172 118.344 9.73809 117.99 10.1715C117.644 10.5956 117.239 10.9552 116.775 11.2503C116.312 11.5454 115.823 11.7897 115.308 11.9834L121 19.4937H115.511L110.249 12.4951H105.127V19.4937ZM114.398 6.49235C114.398 6.12352 114.351 5.81001 114.258 5.55183C114.174 5.29364 114.022 5.08618 113.803 4.92942C113.584 4.76345 113.289 4.64358 112.918 4.56981C112.555 4.49604 112.1 4.45916 111.552 4.45916H105.127V8.52555H111.552C112.1 8.52555 112.555 8.48867 112.918 8.4149C113.289 8.34113 113.584 8.22587 113.803 8.06912C114.022 7.90314 114.174 7.69106 114.258 7.43288C114.351 7.1747 114.398 6.86119 114.398 6.49235Z" fill="black"/>
</g>
</svg>
