<svg width="84" height="22" viewBox="0 0 84 22" fill="none" xmlns="http://www.w3.org/2000/svg">
<g id="Frame 1">
<path id="Vector" d="M10.553 0.0615236H4.21197C4.00205 0.0613903 3.79898 0.136766 3.63935 0.274068C3.47973 0.411371 3.37404 0.601573 3.34134 0.810403L0.776752 17.1858C0.764962 17.2618 0.769665 17.3395 0.790536 17.4135C0.811406 17.4874 0.847948 17.556 0.897648 17.6144C0.947347 17.6728 1.00902 17.7196 1.07843 17.7517C1.14783 17.7838 1.22332 17.8004 1.29968 17.8002H4.32694C4.53699 17.8003 4.74017 17.7248 4.89981 17.5874C5.05946 17.4499 5.16506 17.2594 5.19756 17.0504L5.88924 12.6337C5.92172 12.4249 6.02718 12.2346 6.18664 12.0971C6.34609 11.9596 6.54904 11.884 6.75894 11.8839H8.76629C12.9433 11.8839 15.3539 9.84831 15.9835 5.81445C16.2672 4.04963 15.9955 2.66299 15.175 1.69188C14.2738 0.625517 12.6753 0.0615236 10.553 0.0615236ZM11.2845 6.04229C10.9378 8.33374 9.19928 8.33374 7.5183 8.33374H6.56145L7.23273 4.0543C7.25238 3.9291 7.31575 3.81507 7.41145 3.73274C7.50714 3.6504 7.62887 3.60516 7.75473 3.60516H8.19329C9.33836 3.60516 10.4185 3.60516 10.9767 4.26253C11.3096 4.65471 11.4115 5.23738 11.2845 6.04229ZM29.5074 5.96852H26.4709C26.345 5.96852 26.2233 6.01376 26.1276 6.0961C26.0319 6.17843 25.9685 6.29246 25.9489 6.41766L25.8144 7.27299L25.6021 6.96298C24.9447 6.00213 23.4788 5.68092 22.0157 5.68092C18.6603 5.68092 15.7943 8.24037 15.2362 11.8307C14.946 13.6217 15.3586 15.3342 16.3673 16.5285C17.2927 17.6266 18.6167 18.0841 20.192 18.0841C22.8956 18.0841 24.3949 16.3333 24.3949 16.3333L24.2595 17.183C24.2475 17.259 24.2519 17.3367 24.2725 17.4108C24.2931 17.4849 24.3295 17.5536 24.379 17.6121C24.4285 17.6707 24.4901 17.7178 24.5594 17.7501C24.6287 17.7824 24.7042 17.7992 24.7806 17.7993H27.5158C27.7258 17.7994 27.929 17.7239 28.0887 17.5864C28.2483 17.4489 28.3539 17.2585 28.3864 17.0495L30.0275 6.58293C30.0396 6.50713 30.0352 6.42959 30.0146 6.35567C29.994 6.28175 29.9578 6.21321 29.9083 6.15479C29.8588 6.09637 29.7974 6.04946 29.7282 6.0173C29.6589 5.98514 29.5836 5.96849 29.5074 5.96852ZM25.2748 11.9203C24.9818 13.6674 23.6049 14.8402 21.8488 14.8402C20.9671 14.8402 20.2624 14.5554 19.81 14.0157C19.3612 13.4797 19.1906 12.7168 19.3334 11.8671C19.6069 10.135 21.007 8.92388 22.7362 8.92388C23.5984 8.92388 24.2994 9.21242 24.7611 9.7568C25.2238 10.3068 25.4074 11.0743 25.2748 11.9203ZM45.6793 5.96852H42.6279C42.484 5.96875 42.3424 6.00433 42.2152 6.07219C42.0881 6.14004 41.9793 6.23811 41.8983 6.3579L37.6898 12.601L35.9059 6.60161C35.8511 6.41863 35.7393 6.25826 35.587 6.14424C35.4347 6.03022 35.25 5.96861 35.0603 5.96852H32.0618C31.9776 5.96829 31.8946 5.98832 31.8197 6.02692C31.7447 6.06553 31.68 6.12161 31.631 6.19048C31.5819 6.25935 31.5499 6.33903 31.5376 6.42289C31.5252 6.50674 31.533 6.59235 31.5602 6.67258L34.9212 16.606L31.7614 21.0983C31.7052 21.178 31.6719 21.2716 31.6651 21.3691C31.6583 21.4665 31.6782 21.564 31.7227 21.6508C31.7673 21.7375 31.8346 21.8103 31.9175 21.8611C32.0004 21.9119 32.0955 21.9387 32.1925 21.9387H35.2401C35.3824 21.9389 35.5227 21.9043 35.6488 21.838C35.7749 21.7716 35.8832 21.6755 35.9643 21.5577L46.1132 6.80424C46.1682 6.72442 46.2005 6.63096 46.2065 6.53399C46.2125 6.43701 46.1921 6.34023 46.1474 6.25413C46.1027 6.16803 46.0354 6.0959 45.9529 6.04555C45.8704 5.9952 45.7758 5.96856 45.6793 5.96852Z" fill="#253B80"/>
<path id="Vector_2" d="M56.1861 0.0624388H49.7169C49.5029 0.0625262 49.296 0.136522 49.1334 0.271112C48.9707 0.405702 48.8631 0.592051 48.8297 0.79663L46.2137 16.8509C46.2015 16.9252 46.2062 17.0013 46.2273 17.0738C46.2484 17.1462 46.2855 17.2134 46.336 17.2707C46.3865 17.3279 46.4493 17.3739 46.5199 17.4054C46.5906 17.4369 46.6674 17.4532 46.7452 17.4532H50.0649C50.2147 17.453 50.3595 17.4011 50.4732 17.3068C50.5869 17.2125 50.6622 17.082 50.6854 16.9388L51.4278 12.3881C51.4609 12.1833 51.5685 11.9967 51.7312 11.862C51.8938 11.7272 52.1009 11.6531 52.315 11.653H54.3617C58.6234 11.653 61.0815 9.65727 61.7246 5.70253C62.015 3.97233 61.736 2.61288 60.8989 1.66081C59.9806 0.615371 58.351 0.0624388 56.1861 0.0624388ZM56.9323 5.9259C56.5795 8.17241 54.8062 8.17241 53.0905 8.17241H52.1154L52.8011 3.9769C52.8208 3.85415 52.8852 3.74227 52.9827 3.6615C53.0802 3.58074 53.2043 3.53642 53.3326 3.53657H53.78C54.9471 3.53657 56.0499 3.53657 56.6192 4.18105C56.9588 4.56554 57.0619 5.13678 56.9323 5.9259ZM75.5199 5.85358H72.4243C72.2959 5.85323 72.1717 5.89749 72.0741 5.97829C71.9766 6.05909 71.9122 6.17108 71.8928 6.29391L71.7556 7.13246L71.5381 6.82853C70.8675 5.88653 69.3732 5.57162 67.8807 5.57162C64.4579 5.57162 61.5354 8.08087 60.9661 11.6008C60.671 13.3566 61.09 15.0355 62.119 16.2064C63.0648 17.283 64.4135 17.7315 66.0204 17.7315C68.7783 17.7315 70.3076 16.0151 70.3076 16.0151L70.1695 16.8481C70.1572 16.9228 70.1618 16.9991 70.1829 17.0719C70.2041 17.1446 70.2413 17.2121 70.292 17.2695C70.3428 17.327 70.4058 17.3731 70.4767 17.4046C70.5477 17.4362 70.6249 17.4525 70.703 17.4523H73.4921C73.7062 17.4522 73.9132 17.3781 74.0759 17.2433C74.2385 17.1085 74.3461 16.922 74.3792 16.7172L76.0542 6.45594C76.0661 6.38139 76.0612 6.30524 76.0398 6.23271C76.0184 6.16018 75.981 6.093 75.9302 6.03577C75.8795 5.97854 75.8165 5.93262 75.7457 5.90118C75.6748 5.86973 75.5978 5.85349 75.5199 5.85358ZM71.2024 11.6887C70.9054 13.4015 69.499 14.5513 67.7077 14.5513C66.8101 14.5513 66.0894 14.2721 65.6279 13.7429C65.1701 13.2175 64.998 12.4695 65.1417 11.6365C65.4226 9.93832 66.8489 8.75098 68.6128 8.75098C69.4924 8.75098 70.2074 9.03385 70.6784 9.56756C71.1522 10.1068 71.3395 10.8593 71.2024 11.6887ZM79.1716 0.50277L76.5167 16.8509C76.5046 16.9252 76.5092 17.0013 76.5303 17.0738C76.5514 17.1462 76.5885 17.2134 76.6391 17.2707C76.6896 17.3279 76.7523 17.3739 76.823 17.4054C76.8936 17.4369 76.9705 17.4532 77.0483 17.4532H79.7173C80.1609 17.4532 80.5373 17.142 80.6054 16.7181L83.2233 0.664805C83.2355 0.590392 83.2308 0.514313 83.2097 0.4418C83.1886 0.369287 83.1515 0.302058 83.101 0.244735C83.0505 0.187412 82.9878 0.141354 82.9171 0.109728C82.8465 0.0781016 82.7696 0.0616568 82.6918 0.0615234H79.7031C79.5748 0.0619632 79.4508 0.106608 79.3534 0.187461C79.256 0.268314 79.1916 0.380092 79.1716 0.50277Z" fill="#179BD7"/>
</g>
</svg>
